<svg width="328" height="160" viewBox="0 0 328 160" fill="none" xmlns="http://www.w3.org/2000/svg">
<g opacity="0.3" clip-path="url(#clip0_714_32568)">
<g clip-path="url(#clip1_714_32568)">
<path d="M153.645 61.7839L152.08 57.9825C153.121 57.5478 154.211 57.1243 155.32 56.7013L156.777 60.548C155.697 60.9622 154.647 61.3675 153.645 61.7839Z" fill="url(#paint0_linear_714_32568)"/>
<path d="M83.2046 179.082L81.6887 175.253C83.829 174.405 85.9212 173.546 87.9071 172.673L89.551 176.438C87.5258 177.329 85.3843 178.216 83.1952 179.072L83.2046 179.082ZM90.8192 175.884L89.1458 172.128C91.2403 171.191 93.2872 170.224 95.2178 169.253L97.0679 172.937C95.088 173.935 92.9824 174.92 90.8286 175.894L90.8192 175.884ZM98.2802 172.303L96.4001 168.648C98.4499 167.583 100.423 166.497 102.25 165.416L104.347 168.962C102.45 170.089 100.408 171.222 98.2802 172.303ZM105.532 168.241L103.386 164.723C105.343 163.52 107.214 162.285 108.91 161.045L111.333 164.377C109.538 165.672 107.588 166.982 105.523 168.231L105.532 168.241ZM112.464 163.557L109.99 160.272C111.807 158.9 113.518 157.476 115.035 156.046L117.857 159.041C116.23 160.574 114.409 162.101 112.473 163.567L112.464 163.557ZM115.965 155.133C117.564 153.551 119 151.915 120.233 150.263L123.526 152.739C122.173 154.542 120.605 156.338 118.856 158.062L115.965 155.133ZM120.992 149.229C122.239 147.432 123.304 145.562 124.146 143.676L127.899 145.359C126.943 147.485 125.755 149.584 124.356 151.58L120.982 149.219L120.992 149.229ZM124.646 142.507C125.432 140.561 126.027 138.492 126.42 136.389L130.462 137.14C130.023 139.514 129.352 141.842 128.471 144.047L124.656 142.517L124.646 142.507ZM126.632 135.115C126.936 133.057 127.067 130.956 127.028 128.674L131.144 128.603C131.186 131.107 131.048 133.442 130.709 135.721L126.642 135.125L126.632 135.115ZM126.989 127.373C126.904 125.343 126.687 123.192 126.341 120.805L130.414 120.208C130.775 122.732 131.008 125.019 131.108 127.185L126.999 127.364L126.989 127.373ZM126.137 119.489C125.769 117.179 125.305 114.846 124.918 112.874L128.949 112.053C129.355 114.064 129.827 116.446 130.212 118.834L126.147 119.48L126.137 119.489ZM124.647 111.547L124.519 110.951C124.095 108.901 123.68 106.861 123.314 104.832L127.362 104.089C127.72 106.089 128.145 108.1 128.55 110.13L128.668 110.735L124.637 111.556L124.647 111.547ZM123.073 103.457C122.637 100.853 122.345 98.5839 122.184 96.5125L126.287 96.2078C126.433 98.1429 126.709 100.295 127.13 102.763L123.073 103.457ZM122.1 95.1031C121.983 92.5188 122.072 90.1735 122.381 87.9415L126.459 88.5092C126.176 90.4898 126.095 92.5831 126.21 94.9054L122.1 95.1031ZM122.628 86.5032C123.088 84.0719 123.827 81.7363 124.862 79.555L128.584 81.3055C127.694 83.1807 127.074 85.1221 126.681 87.2449L122.638 86.4938L122.628 86.5032ZM125.522 78.2551C126.631 76.1924 128.039 74.2066 129.715 72.3452L132.777 75.0948C131.322 76.7106 130.106 78.4402 129.141 80.216L125.512 78.2645L125.522 78.2551ZM130.698 71.2684C131.068 70.8816 131.458 70.4954 131.867 70.1098C133.145 68.906 134.568 67.7356 136.105 66.6074L138.538 69.9302C137.13 70.9555 135.837 72.023 134.689 73.1046C134.33 73.4432 133.97 73.7817 133.64 74.1309L130.688 71.2584L130.698 71.2684ZM139.599 69.1759L137.255 65.7878C139.068 64.532 141.093 63.302 143.253 62.1341L145.212 65.7532C143.18 66.857 141.283 68.0036 139.599 69.1759ZM146.385 65.1381L144.495 61.4919C146.446 60.4828 148.561 59.4883 150.792 58.536L152.406 62.3292C150.264 63.2356 148.237 64.1843 146.384 65.1575L146.385 65.1381Z" fill="url(#paint1_linear_714_32568)"/>
<path d="M100.29 124.375L98.2493 122.209L96.0831 124.25L98.1239 126.416L100.29 124.375Z" fill="#F7636B"/>
<path d="M95.9578 128.457L97.9987 130.623L100.165 128.582L98.124 126.416L95.9578 128.457Z" fill="#F7636B"/>
<path d="M96.1984 120.052L98.2393 122.219L100.405 120.178L98.3646 118.012L96.1984 120.052Z" fill="#F7636B"/>
<path d="M95.8324 132.664L97.8733 134.83L100.04 132.79L97.9986 130.623L95.8324 132.664Z" fill="#F7636B"/>
<path d="M95.7071 136.871L97.7479 139.037L99.9141 136.997L97.8733 134.83L95.7071 136.871Z" fill="#F7636B"/>
<path d="M102.205 130.768L104.371 128.727L102.33 126.561L100.164 128.602L102.205 130.768Z" fill="#F7636B"/>
<path d="M106.528 126.676L104.362 128.717L106.403 130.883L108.569 128.842L106.528 126.676Z" fill="#F7636B"/>
<path d="M93.9163 126.31L91.7501 128.351L93.791 130.517L95.9572 128.477L93.9163 126.31Z" fill="#F7636B"/>
<path d="M89.7092 126.185L87.543 128.226L89.5838 130.392L91.7501 128.351L89.7092 126.185Z" fill="#F7636B"/>
<path d="M160.441 105.938L158.4 103.772L156.234 105.813L158.275 107.979L160.441 105.938Z" fill="#C11119"/>
<path d="M156.098 110.029L158.139 112.195L160.305 110.154L158.265 107.988L156.098 110.029Z" fill="#C11119"/>
<path d="M156.32 101.624L158.361 103.79L160.527 101.749L158.486 99.5828L156.32 101.624Z" fill="#C11119"/>
<path d="M155.983 114.227L158.024 116.393L160.19 114.352L158.149 112.186L155.983 114.227Z" fill="#C11119"/>
<path d="M155.858 118.434L157.899 120.6L160.065 118.559L158.024 116.393L155.858 118.434Z" fill="#C11119"/>
<path d="M162.346 112.34L164.512 110.299L162.471 108.133L160.305 110.174L162.346 112.34Z" fill="#C11119"/>
<path d="M166.669 108.229L164.503 110.27L166.544 112.436L168.71 110.395L166.669 108.229Z" fill="#C11119"/>
<path d="M154.058 107.863L151.891 109.904L153.932 112.07L156.098 110.029L154.058 107.863Z" fill="#C11119"/>
<path d="M149.86 107.748L147.694 109.788L149.734 111.955L151.901 109.914L149.86 107.748Z" fill="#C11119"/>
</g>
<g opacity="0.8">
<path d="M214.179 198.855L211.298 195.92C212.903 194.357 214.467 192.738 215.962 191.134L218.979 193.932C217.443 195.591 215.824 197.251 214.179 198.869V198.855ZM219.912 192.903L216.867 190.146C218.362 188.487 219.829 186.786 221.214 185.085L224.41 187.678C222.97 189.447 221.461 191.202 219.925 192.903H219.912ZM225.26 186.594L222.037 184.029C223.423 182.288 224.767 180.491 226.042 178.694L229.402 181.067C228.086 182.932 226.687 184.784 225.26 186.58V186.594ZM230.198 179.942L226.81 177.597C228.072 175.773 229.293 173.894 230.445 172.001L233.956 174.141C232.763 176.102 231.501 178.05 230.198 179.928V179.942ZM234.669 172.975L231.13 170.877C232.255 168.984 233.352 167.023 234.367 165.048L238.015 166.94C236.959 168.984 235.821 171.014 234.655 172.975H234.669ZM238.66 165.72L234.984 163.868C235.972 161.907 236.932 159.877 237.837 157.834L241.609 159.493C240.676 161.605 239.689 163.717 238.66 165.733V165.72ZM242.157 158.218L238.372 156.599C239.236 154.583 240.059 152.485 240.827 150.386L244.695 151.799C243.899 153.966 243.049 156.119 242.157 158.204V158.218ZM245.161 150.51L241.28 149.124C242.007 147.067 242.72 144.928 243.378 142.761L247.314 143.968C246.629 146.189 245.902 148.398 245.161 150.51ZM247.712 142.651L243.762 141.485C244.379 139.4 244.983 137.22 245.545 135.012L249.536 136.027C248.96 138.29 248.343 140.525 247.712 142.651ZM249.865 134.696L245.874 133.709C246.395 131.61 246.903 129.402 247.383 127.153L251.401 128.017C250.908 130.307 250.4 132.557 249.865 134.71V134.696ZM251.689 126.673L247.657 125.836C248.123 123.614 248.549 121.406 248.96 119.212L253.006 119.966C252.595 122.188 252.156 124.424 251.689 126.687V126.673ZM253.253 118.608L249.207 117.868C249.618 115.632 250.002 113.41 250.373 111.202L254.432 111.888C254.048 114.11 253.664 116.359 253.253 118.608ZM254.666 110.544L250.606 109.858L251.731 103.151L255.79 103.837L254.666 110.544ZM256.01 102.493L251.95 101.807C252.334 99.5444 252.718 97.2952 253.116 95.087L257.162 95.8139C256.764 98.0083 256.38 100.244 255.996 102.493H256.01ZM257.409 94.4973L253.363 93.7429C253.788 91.4799 254.227 89.2307 254.693 87.0226L258.725 87.8729C258.259 90.0536 257.834 92.248 257.422 94.4836L257.409 94.4973ZM259 86.5699L254.981 85.6922C255.502 83.3195 256.037 81.1251 256.599 78.9992L260.577 80.0553C260.028 82.1125 259.507 84.2521 259 86.5699ZM260.92 78.7661L256.956 77.6689C257.601 75.351 258.286 73.1292 259.013 71.0582L262.895 72.4023C262.209 74.391 261.537 76.5305 260.92 78.7661ZM285.799 75.3099L285.744 71.1954C286.183 71.1954 286.581 71.1954 286.965 71.1954C288.802 71.1679 290.627 71.0719 292.368 70.9485L292.684 75.0493C290.86 75.1864 288.953 75.2824 287.033 75.3099C286.622 75.3099 286.21 75.3099 285.799 75.3099ZM284.331 75.2962C281.904 75.2413 279.545 75.0493 277.323 74.7338L277.913 70.6605C279.984 70.9622 282.178 71.1405 284.427 71.1816L284.331 75.2962ZM294.069 74.9258L293.685 70.825C295.934 70.6193 298.142 70.3176 300.241 69.9335L300.968 73.9795C298.746 74.3773 296.428 74.6927 294.055 74.9121L294.069 74.9258ZM275.924 74.5144C273.51 74.103 271.192 73.5132 269.039 72.7726L270.369 68.8775C272.331 69.5495 274.429 70.0707 276.637 70.4547L275.938 74.5144H275.924ZM302.353 73.7326L301.544 69.7004C303.752 69.2615 305.891 68.7129 307.907 68.082L309.142 72.0045C306.989 72.6766 304.698 73.2663 302.353 73.7326ZM267.681 72.2925C266.269 71.7577 264.897 71.1405 263.594 70.4547C263.512 70.6879 263.416 70.921 263.333 71.1542L259.466 69.7553C259.644 69.2615 259.822 68.7815 260.014 68.3015C258.026 66.93 256.188 65.3527 254.57 63.5972L257.587 60.7993C258.807 62.116 260.165 63.3229 261.633 64.3927C261.797 64.0361 261.948 63.6795 262.113 63.3229L265.843 65.0373C265.61 65.5584 265.377 66.0796 265.144 66.6145C266.419 67.3003 267.75 67.9174 269.149 68.4386L267.681 72.2788V72.2925ZM310.486 71.5656L309.156 67.6706C311.268 66.9437 313.298 66.1071 315.163 65.1744L317.001 68.8501C314.957 69.865 312.763 70.7839 310.472 71.5656H310.486ZM318.276 68.2055L316.329 64.5847C318.29 63.5286 320.1 62.3491 321.719 61.0736L324.256 64.3104C322.445 65.723 320.443 67.0397 318.276 68.2055ZM266.406 63.8715L262.703 62.0885C263.731 59.949 264.856 57.8917 266.049 55.9716L269.546 58.1249C268.435 59.9353 267.379 61.8691 266.406 63.8852V63.8715ZM325.367 63.4052L322.692 60.2781C324.366 58.8518 325.819 57.3157 327.04 55.6836L330.332 58.1523C328.933 60.0176 327.259 61.7868 325.353 63.4052H325.367ZM253.596 62.5274C252.06 60.717 250.702 58.7146 249.536 56.5613L253.157 54.6138C254.172 56.5065 255.365 58.2757 256.723 59.8667L253.582 62.5274H253.596ZM270.246 57.0002L266.79 54.7647C268.065 52.7897 269.45 50.8833 270.904 49.1004L274.086 51.7062C272.728 53.3795 271.425 55.1487 270.246 57.0002ZM331.196 56.9454L327.781 54.655C328.988 52.872 329.893 50.993 330.483 49.1004L334.419 50.321C333.706 52.5977 332.636 54.8333 331.209 56.9454H331.196ZM248.905 55.2721C247.89 53.1737 247.04 50.9245 246.395 48.5655L250.359 47.4683C250.935 49.5804 251.689 51.5965 252.595 53.4755L248.892 55.2721H248.905ZM274.936 50.705L271.809 48.0306C273.318 46.2751 274.95 44.5744 276.651 42.9834L279.449 46.0007C277.858 47.482 276.335 49.0729 274.923 50.7187L274.936 50.705ZM334.816 48.8809L330.812 47.9209C331.127 46.6042 331.292 45.2876 331.292 43.9984C331.292 43.2989 331.251 42.5994 331.155 41.9411L335.228 41.3788C335.351 42.2428 335.406 43.1206 335.406 44.0121C335.406 45.6167 335.214 47.2625 334.816 48.8946V48.8809ZM246.052 47.1802C245.518 44.9447 245.134 42.5994 244.928 40.1718L249.029 39.8152C249.221 42.0371 249.564 44.1904 250.057 46.2202L246.052 47.1802ZM280.436 45.1093L277.693 42.0371C279.394 40.5147 281.232 39.0472 283.152 37.6757L285.552 41.0222C283.755 42.3114 282.041 43.6829 280.436 45.1093ZM330.935 40.7753C330.496 38.814 329.66 37.0448 328.453 35.5087L331.689 32.9714C333.28 35.0012 334.378 37.3191 334.954 39.8838L330.935 40.789V40.7753ZM286.622 40.2541L284.29 36.8665C286.114 35.6047 288.048 34.3978 290.064 33.2731L290.215 33.1909L292.245 36.7705L292.094 36.8528C290.201 37.9226 288.364 39.0609 286.635 40.2541H286.622ZM244.818 38.7592C244.75 37.6483 244.722 36.5099 244.722 35.3578C244.722 34.2058 244.763 32.944 244.832 31.7233L248.933 31.9702C248.864 33.1086 248.823 34.2469 248.823 35.3578C248.823 36.4688 248.85 37.4837 248.919 38.5123L244.818 38.7592ZM293.397 36.1259L291.449 32.5051C293.575 31.3668 295.687 30.3381 297.745 29.4741L299.336 33.2731C297.402 34.0823 295.399 35.0424 293.397 36.1259ZM327.685 34.6035C326.368 33.2046 324.722 32.0799 322.816 31.2708L324.42 27.4854C326.862 28.514 328.96 29.9678 330.675 31.7919L327.685 34.6172V34.6035ZM300.556 32.7794L299.048 28.9529C301.338 28.0477 303.601 27.3208 305.782 26.7859L306.755 30.777C304.753 31.2708 302.668 31.9428 300.556 32.7657V32.7794ZM321.691 30.8319C319.853 30.201 317.81 29.8444 315.615 29.7621L315.766 25.6476C318.358 25.7436 320.813 26.1687 323.022 26.9368L321.691 30.8319ZM249.029 30.6536L244.928 30.3244C245.12 28.0614 245.422 25.7162 245.86 23.3846L249.906 24.1252C249.495 26.3196 249.207 28.5277 249.029 30.6536ZM308.017 30.489L307.167 26.4568C309.636 25.9356 312.036 25.6613 314.312 25.6201L314.367 29.7347C312.365 29.7621 310.225 30.009 308.031 30.4753L308.017 30.489ZM250.153 22.8223L246.121 21.9994C246.574 19.7638 247.15 17.4871 247.808 15.2378L251.758 16.4036C251.127 18.5432 250.592 20.7101 250.153 22.8223ZM252.142 15.1281L248.219 13.8937C248.905 11.713 249.687 9.51863 250.565 7.33793L254.391 8.87403C253.555 10.945 252.814 13.0434 252.156 15.1281H252.142ZM254.871 7.65339L251.072 6.06244C251.95 3.95031 252.924 1.83818 253.98 -0.246506L257.655 1.60504C256.654 3.59372 255.708 5.62355 254.871 7.63966V7.65339ZM258.259 0.425541L254.611 -1.48085C255.667 -3.51069 256.819 -5.54051 258.026 -7.51548L261.537 -5.36222C260.371 -3.46954 259.274 -1.522 258.259 0.425541ZM262.25 -6.50058L258.766 -8.69498C259.987 -10.6288 261.304 -12.5626 262.661 -14.4279L265.994 -12.014C264.691 -10.2174 263.43 -8.36583 262.25 -6.50058ZM266.776 -13.0838L263.484 -15.5525C264.856 -17.3903 266.31 -19.2145 267.818 -20.97L270.945 -18.2955C269.505 -16.6086 268.106 -14.8668 266.79 -13.0975L266.776 -13.0838ZM271.809 -19.2968L268.71 -22.0123C270.232 -23.7404 271.823 -25.4411 273.455 -27.0732L276.363 -24.1656C274.799 -22.6021 273.263 -20.97 271.809 -19.3105V-19.2968ZM277.309 -25.0982L274.443 -28.047C276.102 -29.6653 277.817 -31.2289 279.572 -32.7101L282.247 -29.583C280.573 -28.1567 278.914 -26.648 277.323 -25.0982H277.309ZM283.248 -30.4334L280.614 -33.6016C282.397 -35.0691 284.235 -36.5092 286.101 -37.8395L288.501 -34.5068C286.718 -33.2176 284.948 -31.846 283.234 -30.4334H283.248ZM289.598 -35.2748L287.239 -38.6487C289.132 -39.9791 291.093 -41.2409 293.054 -42.4341L295.18 -38.9093C293.301 -37.771 291.422 -36.5503 289.598 -35.2885V-35.2748Z" fill="url(#paint2_linear_714_32568)"/>
</g>
<path d="M272.715 96.8014H269.738V99.7776H272.715V96.8014Z" fill="#99161D"/>
<path d="M272.714 102.767H275.691V99.7912H272.714V102.767Z" fill="#99161D"/>
<path d="M266.776 96.8287H269.752V93.8526H266.776V96.8287Z" fill="#99161D"/>
<path d="M275.691 105.744H278.667V102.767H275.691V105.744Z" fill="#99161D"/>
<path d="M278.667 108.72H281.643V105.744H278.667V108.72Z" fill="#99161D"/>
<path d="M278.694 99.8049V96.8287H275.718V99.8049H278.694Z" fill="#99161D"/>
<path d="M278.667 93.8389V96.8151H281.643V93.8389H278.667Z" fill="#99161D"/>
<path d="M269.752 102.781V105.757H272.728V102.781H269.752Z" fill="#99161D"/>
<path d="M266.776 105.757V108.734H269.752V105.757H266.776Z" fill="#99161D"/>
<g filter="url(#filter0_f_714_32568)">
<rect x="195.685" y="-3.39844" width="97.3429" height="182.825" transform="rotate(15 195.685 -3.39844)" fill="black"/>
</g>
<g opacity="0.4" filter="url(#filter1_f_714_32568)">
<path d="M174.234 222.56C89.9491 222.56 21.6226 154.234 21.6226 69.9488C21.6226 -14.3361 89.9491 -82.6626 174.234 -82.6626C258.519 -82.6626 326.845 -14.3361 326.845 69.9488C326.845 154.234 258.519 222.56 174.234 222.56Z" fill="url(#paint3_radial_714_32568)"/>
</g>
<path d="M276.676 27.0484L273.701 17.6152L152.393 145.847L152.607 153.651C153.134 159.002 159.474 163.535 164.726 164.686L226.115 178.126C232.625 179.552 239.098 175.578 240.775 169.13L276.422 32.0625C276.847 30.4259 276.934 28.7196 276.676 27.0484Z" fill="url(#paint4_linear_714_32568)"/>
<path d="M156.776 144.08L194.073 4.96221C195.217 0.695238 199.512 -1.91953 203.828 -0.976227L263.367 12.0383C267.978 13.0462 270.811 17.7014 269.589 22.2601L232.293 161.378C231.149 165.645 226.853 168.26 222.538 167.316L162.999 154.302C158.388 153.294 155.554 148.639 156.776 144.08Z" fill="url(#paint5_radial_714_32568)" stroke="url(#paint6_linear_714_32568)" stroke-width="8.2624"/>
<path d="M156.776 144.08L194.073 4.96221C195.217 0.695238 199.512 -1.91953 203.828 -0.976227L263.367 12.0383C267.978 13.0462 270.811 17.7014 269.589 22.2601L232.293 161.378C231.149 165.645 226.853 168.26 222.538 167.316L162.999 154.302C158.388 153.294 155.554 148.639 156.776 144.08Z" fill="url(#paint7_linear_714_32568)"/>
<path d="M156.776 144.08L194.073 4.96221C195.217 0.695238 199.512 -1.91953 203.828 -0.976227L263.367 12.0383C267.978 13.0462 270.811 17.7014 269.589 22.2601L232.293 161.378C231.149 165.645 226.853 168.26 222.538 167.316L162.999 154.302C158.388 153.294 155.554 148.639 156.776 144.08Z" fill="url(#paint8_radial_714_32568)"/>
<path fill-rule="evenodd" clip-rule="evenodd" d="M194.073 4.9622L156.776 144.08C155.871 147.457 157.191 150.887 159.811 152.848C159.17 151.249 159.021 149.435 159.503 147.636L196.8 8.518C197.944 4.25103 202.239 1.63627 206.555 2.57957L266.093 15.5941C267.289 15.8553 268.364 16.3617 269.281 17.048C268.298 14.5951 266.158 12.6484 263.367 12.0383L203.828 -0.97623C199.512 -1.91953 195.217 0.695235 194.073 4.9622Z" fill="#1C0E20"/>
<path opacity="0.3" fill-rule="evenodd" clip-rule="evenodd" d="M186.61 60.937C185.959 61.7734 184.63 61.1118 184.904 60.088L198.236 10.3599C199.38 6.09297 203.675 3.4782 207.991 4.42149L245.861 12.6993C246.811 12.907 246.901 14.2267 245.988 14.5615L235.88 18.2699C221.196 23.6568 208.318 33.055 198.709 45.3963L186.61 60.937Z" fill="url(#paint9_linear_714_32568)"/>
<path fill-rule="evenodd" clip-rule="evenodd" d="M217.543 13.9126C217.908 12.1615 219.606 11.0391 221.337 11.4058L241.942 15.7733C243.672 16.1401 244.78 17.8571 244.415 19.6084C244.05 21.3595 242.352 22.4819 240.621 22.1152L220.016 17.7477C218.286 17.3809 217.178 15.6639 217.543 13.9126Z" fill="#1C0E20"/>
<path d="M263.975 69.181C263.197 68.9731 262.735 68.1738 262.943 67.3958L267.208 51.4311C267.416 50.6532 268.215 50.1909 268.993 50.3988C269.771 50.6067 270.233 51.4058 270.025 52.1838L265.76 68.1486C265.552 68.9266 264.753 69.3887 263.975 69.181Z" fill="#FABCBF"/>
<path opacity="0.4" d="M168.034 173.938C227.087 173.938 274.959 126.066 274.959 67.0129C274.959 7.95968 227.087 -39.9124 168.034 -39.9124C108.981 -39.9124 61.109 7.95968 61.109 67.0129C61.109 126.066 108.981 173.938 168.034 173.938Z" fill="url(#paint10_radial_714_32568)"/>
<g filter="url(#filter2_f_714_32568)">
<mask id="mask0_714_32568" style="mask-type:alpha" maskUnits="userSpaceOnUse" x="147" y="39" width="77" height="76">
<g clip-path="url(#clip2_714_32568)">
<path d="M190.927 51.2049L161.083 62.6032C156.264 64.4438 153.722 69.7289 155.292 74.643L162.18 96.1944C164.197 102.505 171.101 105.826 177.291 103.462C182.561 101.45 185.604 95.9214 184.485 90.3919L183.478 85.4163L192.602 81.9314L195.168 86.3114C198.02 91.1791 203.973 93.2715 209.244 91.2586C215.433 88.8947 218.366 81.8166 215.662 75.7679L207.81 58.2004C204.93 51.7578 197.519 48.6871 190.927 51.2049Z" fill="url(#paint11_linear_714_32568)"/>
<path d="M190.927 51.2049L161.083 62.6032C156.264 64.4438 153.722 69.7289 155.292 74.643L162.18 96.1944C164.197 102.505 171.101 105.826 177.291 103.462C182.561 101.45 185.604 95.9214 184.485 90.3919L183.478 85.4163L192.602 81.9314L195.168 86.3114C198.02 91.1791 203.973 93.2715 209.244 91.2586C215.433 88.8947 218.366 81.8166 215.662 75.7679L207.81 58.2004C204.93 51.7578 197.519 48.6871 190.927 51.2049Z" fill="url(#paint12_linear_714_32568)"/>
<path d="M190.927 51.2049L161.083 62.6032C156.264 64.4438 153.722 69.7289 155.292 74.643L162.18 96.1944C164.197 102.505 171.101 105.826 177.291 103.462C182.561 101.45 185.604 95.9214 184.485 90.3919L183.478 85.4163L192.602 81.9314L195.168 86.3114C198.02 91.1791 203.973 93.2715 209.244 91.2586C215.433 88.8947 218.366 81.8166 215.662 75.7679L207.81 58.2004C204.93 51.7578 197.519 48.6871 190.927 51.2049Z" fill="url(#paint13_linear_714_32568)"/>
<path d="M190.927 51.2049L161.083 62.6032C156.264 64.4438 153.722 69.7289 155.292 74.643L162.18 96.1944C164.197 102.505 171.101 105.826 177.291 103.462C182.561 101.45 185.604 95.9214 184.485 90.3919L183.478 85.4163L192.602 81.9314L195.168 86.3114C198.02 91.1791 203.973 93.2715 209.244 91.2586C215.433 88.8947 218.366 81.8166 215.662 75.7679L207.81 58.2004C204.93 51.7578 197.519 48.6871 190.927 51.2049Z" fill="url(#paint14_radial_714_32568)" fill-opacity="0.6"/>
</g>
</mask>
<g mask="url(#mask0_714_32568)">
<path d="M155.07 145.401L190.134 14.5082C191.043 10.1851 194.081 7.33969 198.442 8.04589L258.603 17.7897C263.262 18.5442 266.346 23.0378 265.374 27.6564L235.731 168.603C234.821 172.927 230.675 175.772 226.314 175.065L166.153 165.322C161.495 164.567 154.099 150.019 155.07 145.401Z" fill="url(#paint15_linear_714_32568)"/>
</g>
</g>
<g clip-path="url(#clip3_714_32568)" filter="url(#filter3_d_714_32568)">
<path d="M173.962 29.3911L141.916 37.9777C135.135 39.7947 130.955 46.5928 132.393 53.4645L136.891 74.9614C138.362 81.9874 145.433 86.3358 152.366 84.4779C158.271 82.8959 162.166 77.2773 161.576 71.1934L161.045 65.719L171.267 62.9801L173.544 67.9865C176.075 73.5502 182.258 76.4685 188.162 74.8865C195.096 73.0286 199.045 65.7274 196.805 58.9075L189.953 38.0412C187.763 31.3711 180.743 27.5741 173.962 29.3911Z" fill="url(#paint16_linear_714_32568)"/>
<path d="M173.962 29.3911L141.916 37.9777C135.135 39.7947 130.955 46.5928 132.393 53.4645L136.891 74.9614C138.362 81.9874 145.433 86.3358 152.366 84.4779C158.271 82.8959 162.166 77.2773 161.576 71.1934L161.045 65.719L171.267 62.9801L173.544 67.9865C176.075 73.5502 182.258 76.4685 188.162 74.8865C195.096 73.0286 199.045 65.7274 196.805 58.9075L189.953 38.0412C187.763 31.3711 180.743 27.5741 173.962 29.3911Z" fill="url(#paint17_radial_714_32568)"/>
<path d="M173.962 29.3911L141.916 37.9777C135.135 39.7947 130.955 46.5928 132.393 53.4645L136.891 74.9614C138.362 81.9874 145.433 86.3358 152.366 84.4779C158.271 82.8959 162.166 77.2773 161.576 71.1934L161.045 65.719L171.267 62.9801L173.544 67.9865C176.075 73.5502 182.258 76.4685 188.162 74.8865C195.096 73.0286 199.045 65.7274 196.805 58.9075L189.953 38.0412C187.763 31.3711 180.743 27.5741 173.962 29.3911Z" fill="url(#paint18_linear_714_32568)"/>
<path d="M173.962 29.3911L141.916 37.9777C135.135 39.7947 130.955 46.5928 132.393 53.4645L136.891 74.9614C138.362 81.9874 145.433 86.3358 152.366 84.4779C158.271 82.8959 162.166 77.2773 161.576 71.1934L161.045 65.719L171.267 62.9801L173.544 67.9865C176.075 73.5502 182.258 76.4685 188.162 74.8865C195.096 73.0286 199.045 65.7274 196.805 58.9075L189.953 38.0412C187.763 31.3711 180.743 27.5741 173.962 29.3911Z" fill="url(#paint19_radial_714_32568)" fill-opacity="0.6"/>
<g filter="url(#filter4_f_714_32568)">
<ellipse cx="182.578" cy="51.4389" rx="7.74909" ry="19.5412" transform="rotate(-30 182.578 51.4389)" fill="url(#paint20_linear_714_32568)"/>
</g>
<g filter="url(#filter5_f_714_32568)">
<ellipse cx="145.478" cy="61.3797" rx="7.74909" ry="19.5412" fill="url(#paint21_linear_714_32568)"/>
</g>
<mask id="path-47-inside-1_714_32568" fill="white">
<path fill-rule="evenodd" clip-rule="evenodd" d="M147.4 55.6808L148.769 60.7917L153.88 59.4223L152.51 54.3114L157.621 52.9419L156.252 47.8311L151.141 49.2005L149.772 44.0897L144.661 45.4591L146.03 50.5699L140.919 51.9394L142.289 57.0503L147.4 55.6808Z"/>
</mask>
<path fill-rule="evenodd" clip-rule="evenodd" d="M147.4 55.6808L148.769 60.7917L153.88 59.4223L152.51 54.3114L157.621 52.9419L156.252 47.8311L151.141 49.2005L149.772 44.0897L144.661 45.4591L146.03 50.5699L140.919 51.9394L142.289 57.0503L147.4 55.6808Z" fill="#42154C"/>
<path d="M148.769 60.7917L148.13 60.9629C148.176 61.1323 148.286 61.2768 148.438 61.3645C148.59 61.4522 148.771 61.476 148.94 61.4306L148.769 60.7917ZM147.4 55.6808L148.038 55.5096C147.993 55.3402 147.882 55.1957 147.73 55.108C147.578 55.0203 147.398 54.9965 147.228 55.0419L147.4 55.6808ZM153.88 59.4223L154.051 60.0611C154.22 60.0157 154.365 59.9049 154.453 59.753C154.54 59.6011 154.564 59.4205 154.519 59.2511L153.88 59.4223ZM152.51 54.3114L152.339 53.6725C152.17 53.7179 152.025 53.8287 151.938 53.9807C151.85 54.1326 151.826 54.3131 151.872 54.4825L152.51 54.3114ZM157.621 52.9419L157.792 53.5808C157.962 53.5354 158.106 53.4245 158.194 53.2726C158.282 53.1207 158.305 52.9402 158.26 52.7707L157.621 52.9419ZM156.252 47.8311L156.891 47.6599C156.796 47.307 156.433 47.0977 156.081 47.1922L156.252 47.8311ZM151.141 49.2005L150.502 49.3717C150.597 49.7245 150.959 49.9339 151.312 49.8393L151.141 49.2005ZM149.772 44.0897L150.41 43.9185C150.316 43.5657 149.953 43.3563 149.6 43.4508L149.772 44.0897ZM144.661 45.4591L144.489 44.8203C144.137 44.9148 143.927 45.2775 144.022 45.6303L144.661 45.4591ZM146.03 50.5699L146.201 51.2088C146.554 51.1143 146.763 50.7516 146.669 50.3988L146.03 50.5699ZM140.919 51.9394L140.748 51.3006C140.395 51.3951 140.186 51.7578 140.28 52.1106L140.919 51.9394ZM142.289 57.0503L141.65 57.2215C141.695 57.3909 141.806 57.5354 141.958 57.6231C142.11 57.7108 142.29 57.7345 142.46 57.6891L142.289 57.0503ZM149.408 60.6205L148.038 55.5096L146.761 55.852L148.13 60.9629L149.408 60.6205ZM153.709 58.7834L148.598 60.1529L148.94 61.4306L154.051 60.0611L153.709 58.7834ZM151.872 54.4825L153.241 59.5935L154.519 59.2511L153.149 54.1402L151.872 54.4825ZM157.45 52.3031L152.339 53.6725L152.682 54.9502L157.792 53.5808L157.45 52.3031ZM155.613 48.0022L156.982 53.1131L158.26 52.7707L156.891 47.6599L155.613 48.0022ZM151.312 49.8393L156.423 48.4699L156.081 47.1922L150.97 48.5616L151.312 49.8393ZM149.133 44.2609L150.502 49.3717L151.78 49.0293L150.41 43.9185L149.133 44.2609ZM144.832 46.098L149.943 44.7285L149.6 43.4508L144.489 44.8203L144.832 46.098ZM146.669 50.3988L145.299 45.288L144.022 45.6303L145.391 50.7411L146.669 50.3988ZM141.09 52.5783L146.201 51.2088L145.859 49.9311L140.748 51.3006L141.09 52.5783ZM142.927 56.8791L141.558 51.7682L140.28 52.1106L141.65 57.2215L142.927 56.8791ZM147.228 55.0419L142.117 56.4114L142.46 57.6891L147.571 56.3197L147.228 55.0419Z" fill="url(#paint22_angular_714_32568)" fill-opacity="0.5" mask="url(#path-47-inside-1_714_32568)"/>
<circle cx="173.455" cy="40.4825" r="2.64558" transform="rotate(-15 173.455 40.4825)" fill="#42154C"/>
<circle cx="179.935" cy="44.224" r="2.64558" transform="rotate(-15 179.935 44.224)" fill="#42154C"/>
<circle cx="176.194" cy="50.7043" r="2.64558" transform="rotate(-15 176.194 50.7043)" fill="#42154C"/>
<circle cx="169.714" cy="46.9629" r="2.64558" transform="rotate(-15 169.714 46.9629)" fill="#42154C"/>
</g>
<path d="M352.674 160.782C372.989 160.782 389.457 144.313 389.457 123.998C389.457 103.683 372.989 87.2145 352.674 87.2145C332.358 87.2145 315.89 103.683 315.89 123.998C315.89 144.313 332.358 160.782 352.674 160.782Z" fill="url(#paint23_radial_714_32568)"/>
<path d="M161.321 147.191C181.212 147.191 197.337 131.066 197.337 111.175C197.337 91.2838 181.212 75.1589 161.321 75.1589C141.43 75.1589 125.305 91.2838 125.305 111.175C125.305 131.066 141.43 147.191 161.321 147.191Z" fill="url(#paint24_radial_714_32568)"/>
<path d="M306.673 102.767C312.809 102.767 317.782 97.7936 317.782 91.6582C317.782 85.5227 312.809 80.549 306.673 80.549C300.538 80.549 295.564 85.5227 295.564 91.6582C295.564 97.7936 300.538 102.767 306.673 102.767Z" fill="url(#paint25_radial_714_32568)"/>
<path d="M121.602 29.0781C125.177 29.0781 128.075 26.1798 128.075 22.6046C128.075 19.0294 125.177 16.1311 121.602 16.1311C118.027 16.1311 115.128 19.0294 115.128 22.6046C115.128 26.1798 118.027 29.0781 121.602 29.0781Z" fill="url(#paint26_radial_714_32568)"/>
<path d="M78.2622 127.893C81.8374 127.893 84.7357 124.995 84.7357 121.42C84.7357 117.845 81.8374 114.946 78.2622 114.946C74.687 114.946 71.7887 117.845 71.7887 121.42C71.7887 124.995 74.687 127.893 78.2622 127.893Z" fill="url(#paint27_radial_714_32568)"/>
<path d="M279.325 64.1323C290.301 64.1323 299.198 55.2348 299.198 44.2591C299.198 33.2835 290.301 24.386 279.325 24.386C268.35 24.386 259.452 33.2835 259.452 44.2591C259.452 55.2348 268.35 64.1323 279.325 64.1323Z" fill="url(#paint28_radial_714_32568)"/>
<path d="M286.265 145.483C289.84 145.483 292.739 142.585 292.739 139.009C292.739 135.434 289.84 132.536 286.265 132.536C282.69 132.536 279.792 135.434 279.792 139.009C279.792 142.585 282.69 145.483 286.265 145.483Z" fill="url(#paint29_radial_714_32568)"/>
</g>
<defs>
<filter id="filter0_f_714_32568" x="126.206" y="-25.5591" width="185.666" height="246.111" filterUnits="userSpaceOnUse" color-interpolation-filters="sRGB">
<feFlood flood-opacity="0" result="BackgroundImageFix"/>
<feBlend mode="normal" in="SourceGraphic" in2="BackgroundImageFix" result="shape"/>
<feGaussianBlur stdDeviation="11.0803" result="effect1_foregroundBlur_714_32568"/>
</filter>
<filter id="filter1_f_714_32568" x="-36.7003" y="-140.985" width="421.869" height="421.869" filterUnits="userSpaceOnUse" color-interpolation-filters="sRGB">
<feFlood flood-opacity="0" result="BackgroundImageFix"/>
<feBlend mode="normal" in="SourceGraphic" in2="BackgroundImageFix" result="shape"/>
<feGaussianBlur stdDeviation="29.1614" result="effect1_foregroundBlur_714_32568"/>
</filter>
<filter id="filter2_f_714_32568" x="151.659" y="35.6794" width="74.9188" height="82.3042" filterUnits="userSpaceOnUse" color-interpolation-filters="sRGB">
<feFlood flood-opacity="0" result="BackgroundImageFix"/>
<feBlend mode="normal" in="SourceGraphic" in2="BackgroundImageFix" result="shape"/>
<feGaussianBlur stdDeviation="1.66205" result="effect1_foregroundBlur_714_32568"/>
</filter>
<filter id="filter3_d_714_32568" x="123.125" y="15.7074" width="90.3285" height="90.3284" filterUnits="userSpaceOnUse" color-interpolation-filters="sRGB">
<feFlood flood-opacity="0" result="BackgroundImageFix"/>
<feColorMatrix in="SourceAlpha" type="matrix" values="0 0 0 0 0 0 0 0 0 0 0 0 0 0 0 0 0 0 127 0" result="hardAlpha"/>
<feOffset dx="4.18825" dy="4.18825"/>
<feGaussianBlur stdDeviation="3.14118"/>
<feColorMatrix type="matrix" values="0 0 0 0 0 0 0 0 0 0 0 0 0 0 0 0 0 0 0.5 0"/>
<feBlend mode="normal" in2="BackgroundImageFix" result="effect1_dropShadow_714_32568"/>
<feBlend mode="normal" in="SourceGraphic" in2="effect1_dropShadow_714_32568" result="shape"/>
</filter>
<filter id="filter4_f_714_32568" x="165.432" y="28.7828" width="34.2912" height="45.312" filterUnits="userSpaceOnUse" color-interpolation-filters="sRGB">
<feFlood flood-opacity="0" result="BackgroundImageFix"/>
<feBlend mode="normal" in="SourceGraphic" in2="BackgroundImageFix" result="shape"/>
<feGaussianBlur stdDeviation="2.64558" result="effect1_foregroundBlur_714_32568"/>
</filter>
<filter id="filter5_f_714_32568" x="132.438" y="36.5473" width="26.0805" height="49.6647" filterUnits="userSpaceOnUse" color-interpolation-filters="sRGB">
<feFlood flood-opacity="0" result="BackgroundImageFix"/>
<feBlend mode="normal" in="SourceGraphic" in2="BackgroundImageFix" result="shape"/>
<feGaussianBlur stdDeviation="2.64558" result="effect1_foregroundBlur_714_32568"/>
</filter>
<linearGradient id="paint0_linear_714_32568" x1="150.485" y1="62.9899" x2="69.9062" y2="138.907" gradientUnits="userSpaceOnUse">
<stop stop-color="#982DBE" stop-opacity="0.4"/>
<stop offset="0.3" stop-color="#BA5CB0" stop-opacity="0.61"/>
<stop offset="0.63" stop-color="#DD8CA3" stop-opacity="0.82"/>
<stop offset="0.88" stop-color="#F2AA9B" stop-opacity="0.95"/>
<stop offset="1" stop-color="#FBB698"/>
</linearGradient>
<linearGradient id="paint1_linear_714_32568" x1="164.179" y1="77.5244" x2="83.5997" y2="153.441" gradientUnits="userSpaceOnUse">
<stop stop-color="#982DBE" stop-opacity="0.4"/>
<stop offset="0.3" stop-color="#BA5CB0" stop-opacity="0.61"/>
<stop offset="0.63" stop-color="#DD8CA3" stop-opacity="0.82"/>
<stop offset="0.88" stop-color="#F2AA9B" stop-opacity="0.95"/>
<stop offset="1" stop-color="#FBB698"/>
</linearGradient>
<linearGradient id="paint2_linear_714_32568" x1="273.345" y1="125.397" x2="273.345" y2="-8.55784" gradientUnits="userSpaceOnUse">
<stop stop-color="#982DBE" stop-opacity="0"/>
<stop offset="0.08" stop-color="#AC49B6" stop-opacity="0.21"/>
<stop offset="0.16" stop-color="#BE62AF" stop-opacity="0.39"/>
<stop offset="0.25" stop-color="#CE79A8" stop-opacity="0.56"/>
<stop offset="0.35" stop-color="#DC8BA3" stop-opacity="0.69"/>
<stop offset="0.45" stop-color="#E79B9F" stop-opacity="0.8"/>
<stop offset="0.55" stop-color="#F0A79C" stop-opacity="0.89"/>
<stop offset="0.67" stop-color="#F6AF99" stop-opacity="0.95"/>
<stop offset="0.8" stop-color="#F9B498" stop-opacity="0.99"/>
<stop offset="1" stop-color="#FBB698"/>
</linearGradient>
<radialGradient id="paint3_radial_714_32568" cx="0" cy="0" r="1" gradientUnits="userSpaceOnUse" gradientTransform="translate(174.835 70.5272) rotate(180) scale(152.395 152.863)">
<stop offset="0.165" stop-color="#BB1195" stop-opacity="0.96"/>
<stop offset="0.37" stop-color="#873EFF" stop-opacity="0.61"/>
<stop offset="0.4" stop-color="#F17B81" stop-opacity="0.47"/>
<stop offset="0.44" stop-color="#ED5C63" stop-opacity="0.34"/>
<stop offset="0.48" stop-color="#EB424A" stop-opacity="0.23"/>
<stop offset="0.53" stop-color="#E82D36" stop-opacity="0.15"/>
<stop offset="0.58" stop-color="#E71C26" stop-opacity="0.08"/>
<stop offset="0.65" stop-color="#E5111B" stop-opacity="0.03"/>
<stop offset="0.74" stop-color="#E50A15" stop-opacity="0"/>
<stop offset="1" stop-color="#E50914" stop-opacity="0"/>
</radialGradient>
<linearGradient id="paint4_linear_714_32568" x1="151.864" y1="155.553" x2="273.253" y2="18.0916" gradientUnits="userSpaceOnUse">
<stop stop-color="#792A95"/>
<stop offset="0.177096" stop-color="#922556"/>
<stop offset="0.230821" stop-color="#E75094"/>
<stop offset="0.369605" stop-color="#E50914"/>
<stop offset="0.735849" stop-color="#E50914"/>
<stop offset="1" stop-color="#EF7744"/>
</linearGradient>
<radialGradient id="paint5_radial_714_32568" cx="0" cy="0" r="1" gradientUnits="userSpaceOnUse" gradientTransform="translate(201.343 60.3572) rotate(85.9112) scale(81.8073 56.9066)">
<stop stop-color="#1C0E20" stop-opacity="0"/>
<stop offset="1" stop-color="#1C0E20"/>
</radialGradient>
<linearGradient id="paint6_linear_714_32568" x1="160.052" y1="148.211" x2="267.377" y2="18.7442" gradientUnits="userSpaceOnUse">
<stop stop-color="#C94FF5"/>
<stop offset="0.338542" stop-color="#F276AE"/>
<stop offset="0.661458" stop-color="#FF6D75"/>
<stop offset="1" stop-color="#F7976E"/>
</linearGradient>
<linearGradient id="paint7_linear_714_32568" x1="163.099" y1="20.8497" x2="245.961" y2="161.654" gradientUnits="userSpaceOnUse">
<stop stop-color="#99161D"/>
<stop offset="0.245283" stop-color="#CA005B"/>
<stop offset="0.346698" stop-color="#FF479A"/>
<stop offset="0.46934" stop-color="#CC3CFF"/>
<stop offset="0.735849" stop-color="#BC1A22"/>
<stop offset="1" stop-color="#C94FF5"/>
</linearGradient>
<radialGradient id="paint8_radial_714_32568" cx="0" cy="0" r="1" gradientUnits="userSpaceOnUse" gradientTransform="translate(186.219 61.0492) rotate(82.8143) scale(86.9426 86.9426)">
<stop stop-color="#1C0E20" stop-opacity="0"/>
<stop offset="1" stop-color="#1C0E20"/>
</radialGradient>
<linearGradient id="paint9_linear_714_32568" x1="202.123" y1="4.37375" x2="228.897" y2="45.6636" gradientUnits="userSpaceOnUse">
<stop stop-color="white"/>
<stop offset="1" stop-color="white" stop-opacity="0"/>
</linearGradient>
<radialGradient id="paint10_radial_714_32568" cx="0" cy="0" r="1" gradientUnits="userSpaceOnUse" gradientTransform="translate(168.034 67.0129) scale(106.925)">
<stop stop-color="#B857C8" stop-opacity="0.42"/>
<stop offset="0.224318" stop-color="#B454B3" stop-opacity="0.29"/>
<stop offset="0.42" stop-color="#A945B7" stop-opacity="0.18"/>
<stop offset="0.52" stop-color="#A13ABA" stop-opacity="0.1"/>
<stop offset="0.64" stop-color="#9C32BC" stop-opacity="0.04"/>
<stop offset="0.77" stop-color="#982EBD" stop-opacity="0.01"/>
<stop offset="1" stop-color="#982DBE" stop-opacity="0"/>
</radialGradient>
<linearGradient id="paint11_linear_714_32568" x1="200.935" y1="42.1549" x2="170.559" y2="124.232" gradientUnits="userSpaceOnUse">
<stop stop-color="#E9388D"/>
<stop offset="0.45116" stop-color="#F260F5"/>
<stop offset="1" stop-color="#7D2889"/>
</linearGradient>
<linearGradient id="paint12_linear_714_32568" x1="159.629" y1="87.9902" x2="176.85" y2="85.0016" gradientUnits="userSpaceOnUse">
<stop stop-color="#FFC2D9"/>
<stop offset="1" stop-color="#C421DB" stop-opacity="0"/>
</linearGradient>
<linearGradient id="paint13_linear_714_32568" x1="213.235" y1="67.5164" x2="201.438" y2="74.3785" gradientUnits="userSpaceOnUse">
<stop stop-color="#FFC2D9"/>
<stop offset="1" stop-color="#F79292" stop-opacity="0"/>
</linearGradient>
<radialGradient id="paint14_radial_714_32568" cx="0" cy="0" r="1" gradientUnits="userSpaceOnUse" gradientTransform="translate(189.782 88.2361) rotate(69.0966) scale(24.4182 32.5576)">
<stop offset="0.0572619" stop-color="#42154C"/>
<stop offset="0.634765" stop-color="#E50A14" stop-opacity="0"/>
</radialGradient>
<linearGradient id="paint15_linear_714_32568" x1="177.82" y1="55.8467" x2="215.469" y2="228.044" gradientUnits="userSpaceOnUse">
<stop stop-color="#1C0E20" stop-opacity="0"/>
<stop offset="0.0001" stop-color="#1C0E20" stop-opacity="0.09"/>
<stop offset="1" stop-color="#1C0E20"/>
</linearGradient>
<linearGradient id="paint16_linear_714_32568" x1="184.679" y1="21.0416" x2="142.797" y2="106.111" gradientUnits="userSpaceOnUse">
<stop stop-color="#E9388D"/>
<stop offset="0.45116" stop-color="#F260F5"/>
<stop offset="1" stop-color="#7D2889"/>
</linearGradient>
<radialGradient id="paint17_radial_714_32568" cx="0" cy="0" r="1" gradientUnits="userSpaceOnUse" gradientTransform="translate(127.866 50.87) rotate(28.2127) scale(29.6257 41.3469)">
<stop offset="0.173709" stop-color="white"/>
<stop offset="0.323775" stop-color="#FFC2D9"/>
<stop offset="1" stop-color="#C421DB" stop-opacity="0"/>
</radialGradient>
<linearGradient id="paint18_linear_714_32568" x1="195.109" y1="49.7443" x2="181.63" y2="55.825" gradientUnits="userSpaceOnUse">
<stop stop-color="#FFC2D9"/>
<stop offset="1" stop-color="#F79292" stop-opacity="0"/>
</linearGradient>
<radialGradient id="paint19_radial_714_32568" cx="0" cy="0" r="1" gradientUnits="userSpaceOnUse" gradientTransform="translate(167.525 69.4605) rotate(75) scale(26.4558 35.2744)">
<stop offset="0.0572619" stop-color="#42154C"/>
<stop offset="0.634765" stop-color="#E50A14" stop-opacity="0"/>
</radialGradient>
<linearGradient id="paint20_linear_714_32568" x1="182.578" y1="31.8977" x2="182.578" y2="70.9801" gradientUnits="userSpaceOnUse">
<stop stop-color="#E50A14" stop-opacity="0"/>
<stop offset="1" stop-color="#EA66FF"/>
</linearGradient>
<linearGradient id="paint21_linear_714_32568" x1="145.478" y1="41.8385" x2="145.478" y2="80.9209" gradientUnits="userSpaceOnUse">
<stop stop-color="#E50A14" stop-opacity="0"/>
<stop offset="1" stop-color="#EA66FF"/>
</linearGradient>
<radialGradient id="paint22_angular_714_32568" cx="0" cy="0" r="1" gradientUnits="userSpaceOnUse" gradientTransform="translate(146.385 53.5162) rotate(-165.964) scale(10.908 8.2423)">
<stop offset="0.285986" stop-color="white" stop-opacity="0.286287"/>
<stop offset="0.998951" stop-color="white"/>
<stop offset="1" stop-color="white" stop-opacity="0"/>
</radialGradient>
<radialGradient id="paint23_radial_714_32568" cx="0" cy="0" r="1" gradientUnits="userSpaceOnUse" gradientTransform="translate(352.674 123.998) scale(36.7839 36.7838)">
<stop stop-color="#982DBE" stop-opacity="0.98"/>
<stop offset="0.09" stop-color="#982DBE" stop-opacity="0.75"/>
<stop offset="0.18" stop-color="#982DBE" stop-opacity="0.55"/>
<stop offset="0.27" stop-color="#982DBE" stop-opacity="0.38"/>
<stop offset="0.37" stop-color="#982DBE" stop-opacity="0.24"/>
<stop offset="0.48" stop-color="#982DBE" stop-opacity="0.13"/>
<stop offset="0.6" stop-color="#982DBE" stop-opacity="0.06"/>
<stop offset="0.75" stop-color="#982DBE" stop-opacity="0.01"/>
<stop offset="1" stop-color="#982DBE" stop-opacity="0"/>
</radialGradient>
<radialGradient id="paint24_radial_714_32568" cx="0" cy="0" r="1" gradientUnits="userSpaceOnUse" gradientTransform="translate(161.321 111.175) scale(36.0158)">
<stop stop-color="#FBB698"/>
<stop offset="0.02" stop-color="#F5AE9A" stop-opacity="0.94"/>
<stop offset="0.09" stop-color="#E193A1" stop-opacity="0.75"/>
<stop offset="0.17" stop-color="#D07AA8" stop-opacity="0.57"/>
<stop offset="0.25" stop-color="#C165AE" stop-opacity="0.42"/>
<stop offset="0.33" stop-color="#B454B3" stop-opacity="0.29"/>
<stop offset="0.42" stop-color="#A945B7" stop-opacity="0.18"/>
<stop offset="0.52" stop-color="#A13ABA" stop-opacity="0.1"/>
<stop offset="0.64" stop-color="#9C32BC" stop-opacity="0.04"/>
<stop offset="0.77" stop-color="#982EBD" stop-opacity="0.01"/>
<stop offset="1" stop-color="#982DBE" stop-opacity="0"/>
</radialGradient>
<radialGradient id="paint25_radial_714_32568" cx="0" cy="0" r="1" gradientUnits="userSpaceOnUse" gradientTransform="translate(306.673 91.6582) scale(11.1092 11.1092)">
<stop stop-color="#FBB698"/>
<stop offset="0.02" stop-color="#F5AE9A" stop-opacity="0.94"/>
<stop offset="0.09" stop-color="#E193A1" stop-opacity="0.75"/>
<stop offset="0.17" stop-color="#D07AA8" stop-opacity="0.57"/>
<stop offset="0.25" stop-color="#C165AE" stop-opacity="0.42"/>
<stop offset="0.33" stop-color="#B454B3" stop-opacity="0.29"/>
<stop offset="0.42" stop-color="#A945B7" stop-opacity="0.18"/>
<stop offset="0.52" stop-color="#A13ABA" stop-opacity="0.1"/>
<stop offset="0.64" stop-color="#9C32BC" stop-opacity="0.04"/>
<stop offset="0.77" stop-color="#982EBD" stop-opacity="0.01"/>
<stop offset="1" stop-color="#982DBE" stop-opacity="0"/>
</radialGradient>
<radialGradient id="paint26_radial_714_32568" cx="0" cy="0" r="1" gradientUnits="userSpaceOnUse" gradientTransform="translate(121.602 22.6046) scale(6.47352)">
<stop stop-color="#FBB698"/>
<stop offset="0.02" stop-color="#F5AE9A" stop-opacity="0.94"/>
<stop offset="0.09" stop-color="#E193A1" stop-opacity="0.75"/>
<stop offset="0.17" stop-color="#D07AA8" stop-opacity="0.57"/>
<stop offset="0.25" stop-color="#C165AE" stop-opacity="0.42"/>
<stop offset="0.33" stop-color="#B454B3" stop-opacity="0.29"/>
<stop offset="0.42" stop-color="#A945B7" stop-opacity="0.18"/>
<stop offset="0.52" stop-color="#A13ABA" stop-opacity="0.1"/>
<stop offset="0.64" stop-color="#9C32BC" stop-opacity="0.04"/>
<stop offset="0.77" stop-color="#982EBD" stop-opacity="0.01"/>
<stop offset="1" stop-color="#982DBE" stop-opacity="0"/>
</radialGradient>
<radialGradient id="paint27_radial_714_32568" cx="0" cy="0" r="1" gradientUnits="userSpaceOnUse" gradientTransform="translate(78.2622 121.42) scale(6.47352)">
<stop stop-color="#FBB698"/>
<stop offset="0.02" stop-color="#F5AE9A" stop-opacity="0.94"/>
<stop offset="0.09" stop-color="#E193A1" stop-opacity="0.75"/>
<stop offset="0.17" stop-color="#D07AA8" stop-opacity="0.57"/>
<stop offset="0.25" stop-color="#C165AE" stop-opacity="0.42"/>
<stop offset="0.33" stop-color="#B454B3" stop-opacity="0.29"/>
<stop offset="0.42" stop-color="#A945B7" stop-opacity="0.18"/>
<stop offset="0.52" stop-color="#A13ABA" stop-opacity="0.1"/>
<stop offset="0.64" stop-color="#9C32BC" stop-opacity="0.04"/>
<stop offset="0.77" stop-color="#982EBD" stop-opacity="0.01"/>
<stop offset="1" stop-color="#982DBE" stop-opacity="0"/>
</radialGradient>
<radialGradient id="paint28_radial_714_32568" cx="0" cy="0" r="1" gradientUnits="userSpaceOnUse" gradientTransform="translate(279.325 44.2591) scale(19.8731 19.8731)">
<stop stop-color="#FBB698"/>
<stop offset="0.02" stop-color="#F5AE9A" stop-opacity="0.94"/>
<stop offset="0.09" stop-color="#E193A1" stop-opacity="0.75"/>
<stop offset="0.17" stop-color="#D07AA8" stop-opacity="0.57"/>
<stop offset="0.25" stop-color="#C165AE" stop-opacity="0.42"/>
<stop offset="0.33" stop-color="#B454B3" stop-opacity="0.29"/>
<stop offset="0.42" stop-color="#A945B7" stop-opacity="0.18"/>
<stop offset="0.52" stop-color="#A13ABA" stop-opacity="0.1"/>
<stop offset="0.64" stop-color="#9C32BC" stop-opacity="0.04"/>
<stop offset="0.77" stop-color="#982EBD" stop-opacity="0.01"/>
<stop offset="1" stop-color="#982DBE" stop-opacity="0"/>
</radialGradient>
<radialGradient id="paint29_radial_714_32568" cx="0" cy="0" r="1" gradientUnits="userSpaceOnUse" gradientTransform="translate(286.265 139.009) scale(6.47352)">
<stop stop-color="#FBB698"/>
<stop offset="0.02" stop-color="#F5AE9A" stop-opacity="0.94"/>
<stop offset="0.09" stop-color="#E193A1" stop-opacity="0.75"/>
<stop offset="0.17" stop-color="#D07AA8" stop-opacity="0.57"/>
<stop offset="0.25" stop-color="#C165AE" stop-opacity="0.42"/>
<stop offset="0.33" stop-color="#B454B3" stop-opacity="0.29"/>
<stop offset="0.42" stop-color="#A945B7" stop-opacity="0.18"/>
<stop offset="0.52" stop-color="#A13ABA" stop-opacity="0.1"/>
<stop offset="0.64" stop-color="#9C32BC" stop-opacity="0.04"/>
<stop offset="0.77" stop-color="#982EBD" stop-opacity="0.01"/>
<stop offset="1" stop-color="#982DBE" stop-opacity="0"/>
</radialGradient>
<clipPath id="clip0_714_32568">
<rect width="400" height="251.524" fill="white" transform="translate(0.5 -56.2617)"/>
</clipPath>
<clipPath id="clip1_714_32568">
<rect width="80.0412" height="149.618" fill="white" transform="translate(150.984 52.0994) rotate(46.7064)"/>
</clipPath>
<clipPath id="clip2_714_32568">
<rect width="58.6037" height="58.6037" fill="white" transform="translate(147.598 59.913) rotate(-20.9034)"/>
</clipPath>
<clipPath id="clip3_714_32568">
<rect width="63.4939" height="63.4939" fill="white" transform="translate(125.22 34.2349) rotate(-15)"/>
</clipPath>
</defs>
</svg>
